Coordinates
version=1
nRows=14
nColumns=36
inDegrees=yes

Units are S.I. units (second, meters, Newtons, ...)
If the header above contains a line with 'inDegrees', this indicates whether rotational values are in degrees (yes) or radians (no).

endheader
time	pelvis_tilt	pelvis_list	pelvis_rotation	pelvis_tx	pelvis_ty	pelvis_tz	hip_flexion_r	hip_adduction_r	hip_rotation_r	knee_angle_r	knee_angle_r_beta	ankle_angle_r	subtalar_angle_r	mtp_angle_r	hip_flexion_l	hip_adduction_l	hip_rotation_l	knee_angle_l	knee_angle_l_beta	ankle_angle_l	subtalar_angle_l	mtp_angle_l	lumbar_extension	lumbar_bending	lumbar_rotation	arm_flex_r	arm_add_r	arm_rot_r	elbow_flex_r	pro_sup_r	arm_flex_l	arm_add_l	arm_rot_l	elbow_flex_l	pro_sup_l
      6.80000000	    -15.56017855	     -0.81095986	     -1.03562766	      0.69106428	      0.91586418	      0.20339993	     26.97931310	     -8.37804764	    -21.22800907	     14.92238049	      0.26044467	      3.94532257	     -3.26068143	     -7.49999987	     27.13134451	    -11.07331943	    -21.83907561	     17.36112317	      0.30300876	      7.57129764	     -1.60267095	     -7.49999987	      4.80890573	     -1.16484692	      3.73938392	     59.23867376	      6.97151914	     53.54793481	    130.03261370	     96.64068005	     56.66164626	      6.05113965	     58.74903937	    115.27725129	    100.16505842
      6.81666670	    -15.33810960	     -0.88650301	     -0.80417191	      0.69082077	      0.92257474	      0.20226133	     25.28779382	     -7.91888443	    -21.27368066	     12.42037997	      0.21677652	      2.85224794	     -2.74261399	     -7.49999987	     25.63242995	    -10.54203910	    -21.73649127	     15.04469840	      0.26257952	      6.96550674	     -1.07024728	     -7.49999987	      5.79704764	     -1.15694276	      3.63818885	     58.16356705	      6.85245570	     53.62643160	    130.24373518	     96.58460687	     55.64425830	      6.65243126	     59.10678539	    116.52368868	    100.33027678
      6.83333330	    -13.87393422	     -1.05665060	     -0.42287790	      0.70586200	      0.93015740	      0.19371931	     21.77336085	     -7.39037885	    -21.40677281	      9.28775340	      0.16210188	      1.54789497	     -2.46828529	     -7.49999987	     22.42977184	     -9.84647472	    -21.55256683	     12.15287999	      0.21210777	      6.43901649	     -0.61467664	     -7.49999987	      5.27402370	     -0.85341458	      3.30049578	     56.95390363	      6.16834860	     53.53719320	    130.88094305	     96.39792129	     54.05414999	      7.65234236	     58.56314440	    118.06454821	    100.68931723
      6.85000000	    -13.15927142	     -1.12907609	     -0.03893847	      0.71013329	      0.92838933	      0.19017503	     19.64891465	     -7.09859688	    -21.25791508	      7.11201261	      0.12412804	      0.62611585	     -2.41986057	     -7.49999987	     20.40322652	     -9.19607136	    -21.15067697	      9.94450436	      0.17356434	      6.02951106	     -0.32557795	     -7.49999987	      5.78681098	     -0.66047734	      2.55110958	     55.76343549	      6.12720099	     52.91903801	    131.22849434	     96.20690177	     53.08786022	      8.68417878	     56.59360419	    118.21738580	    100.84712936
      6.86666670	    -12.74547260	     -1.15816387	      0.31018190	      0.71086752	      0.93181282	      0.18969890	     17.97116610	     -6.91094868	    -21.14468327	      5.28117840	      0.09217395	     -0.33637904	     -2.39230464	     -7.49999987	     18.83811845	     -8.60565695	    -20.67502046	      7.91646100	      0.13816831	      5.67234585	      0.01893782	     -7.49999987	      6.43368444	     -0.59879108	      1.98647515	     54.46043327	      5.69081993	     52.86557587	    131.15035576	     96.08953423	     52.28760803	      8.85836677	     55.87072943	    118.54110135	    100.86584424
      6.88333330	    -11.77023230	     -1.21219143	      0.78713172	      0.71485655	      0.93306091	      0.18629375	     15.94564484	     -6.82508264	    -21.07523759	      3.84661553	      0.06713611	     -1.10124756	     -2.70998756	     -7.49999987	     16.88866155	     -8.06388821	    -19.89071501	      6.31504906	      0.11021840	      5.16110956	     -0.17927445	     -7.49999987	      5.87427392	     -0.32666601	      0.84727596	     54.19164528	      5.99751421	     52.75752472	    130.54380509	     93.98160162	     51.82413419	      8.97152701	     54.78481916	    119.37239759	    100.81390966
      6.90000000	    -11.07952323	     -1.22753116	      1.08017904	      0.71509412	      0.93260131	      0.18624158	     14.43349837	     -6.74969760	    -20.84761680	      2.76925653	      0.04833264	     -1.74983422	     -3.23651758	     -7.49999987	     15.28768818	     -7.61378023	    -19.38592787	      4.83200319	      0.08433437	      4.55571186	     -0.15931510	     -7.49999987	      5.77396231	     -0.28372190	      0.50750228	     54.21301878	      6.26878202	     52.89472142	    130.54393376	     93.00282926	     51.54269838	      9.21231607	     54.35985720	    119.28199165	     99.88192191
      6.91666670	    -10.46554183	     -1.25764794	      1.33453200	      0.71942699	      0.93355615	      0.18819755	     13.13630910	     -6.66830560	    -20.69923396	      1.88838801	      0.03295859	     -2.28308777	     -3.69906132	     -7.49999987	     13.82322349	     -7.27870635	    -18.87139426	      3.45202961	      0.06024928	      3.99053242	     -0.12754157	     -7.49999987	      5.81273850	     -0.27502645	      0.38389589	     53.53548712	      6.77797797	     53.00426601	    130.78581299	     92.85420815	     50.30607268	      8.63597331	     53.68180640	    118.14283747	     99.99045561
      6.93333330	    -10.17441476	     -1.28863500	      1.58250822	      0.71859049	      0.93297285	      0.18330066	     12.45911574	     -6.66899368	    -20.85004062	      1.46319351	      0.02553754	     -2.58906162	     -3.98830319	     -7.49999987	     13.05429078	     -7.03294973	    -18.35566441	      2.61144631	      0.04557834	      3.62832181	     -0.08428328	     -7.49999987	      6.03247580	     -0.24720518	      0.50675847	     52.96768916	      6.88179600	     53.19645337	    131.09027538	     92.79699725	     49.66515629	      8.66345457	     53.71378328	    118.33310717	    100.01836417
      6.95000000	     -9.68832915	     -1.27671879	      1.89064446	      0.71779011	      0.93287245	      0.18230897	     11.62118523	     -6.74131401	    -20.80448023	      1.05493472	      0.01841208	     -2.85930859	     -4.63805841	     -7.49999987	     12.10710756	     -6.72501982	    -17.64337244	      1.81426121	      0.03166483	      3.06537901	     -0.48547044	     -7.49999987	      5.75145989	     -0.24675323	      0.15661423	     52.84570590	      7.03558461	     53.58847075	    131.62907055	     92.12462291	     49.63011736	      8.89744000	     53.12118410	    118.39140397	    100.31839957
      6.96666670	     -9.47653586	     -1.27887903	      2.11441797	      0.71802760	      0.93244135	      0.18237092	     11.25914448	     -6.81519668	    -20.96635036	      0.85703469	      0.01495808	     -2.80954365	     -4.92062151	     -7.49999987	     11.67941245	     -6.55147777	    -17.06769045	      1.36832630	      0.02388180	      2.79342549	     -0.60166822	     -7.49999987	      5.63741737	     -0.31920990	      0.16745477	     52.42544297	      6.74051970	     53.90506169	    132.54569424	     91.17293570	     49.29813438	      8.74451088	     53.50972845	    120.04972764	    100.52069783
      6.98333330	     -9.34804523	     -1.32176686	      2.35710321	      0.71700119	      0.93706242	      0.18179223	     10.95953306	     -6.82426660	    -21.06517161	      0.70515531	      0.01230728	     -2.78519847	     -5.09054965	     -7.49999987	     11.42275565	     -6.45254021	    -16.68553828	      0.99818633	      0.01742164	      2.65240528	     -0.42048604	     -7.49999987	      5.45793932	     -0.36711646	      0.18022974	     51.65830442	      6.32546541	     54.30804261	    132.32326386	     91.20515639	     48.93952467	      8.74339248	     53.56036127	    120.01714093	    100.52610994
      7.00000000	     -9.12151931	     -1.33206364	      2.63118713	      0.72143645	      0.93733104	      0.17967137	     10.57552651	     -6.89917750	    -21.07369455	      0.58183691	      0.01015497	     -2.63467676	     -5.27658980	     -7.49999987	     11.10212918	     -6.31466887	    -16.28316746	      0.79765330	      0.01392168	      2.46422639	     -0.28772596	     -7.49999987	      5.20681191	     -0.27681148	      0.12268903	     50.70155472	      6.55974246	     55.14837816	    132.23294083	     91.27325278	     48.24343566	      8.59447486	     53.88144683	    119.33480352	    100.55734783
      7.01666670	     -8.71836782	     -1.44132789	      2.95724877	      0.72601034	      0.93785985	      0.18134705	      9.94651003	     -6.83365105	    -21.44940506	      0.47526071	      0.00829486	     -2.77133547	     -5.52834029	     -7.49999987	     10.56143373	     -6.31248110	    -15.76028695	      0.60757687	      0.01060422	      2.31559978	     -0.45799490	     -7.49999987	      4.86604032	     -0.32953274	      0.13329776	     50.33943296	      5.65334723	     55.16647913	    131.33190324	     91.40086329	     48.16921246	      8.92945932	     54.32701058	    118.48796486	    100.61297367
